<svg width="32" height="34" fill="none" xmlns="http://www.w3.org/2000/svg"><path d="M26.771 9.36L4.961 6.475a1 1 0 00-1.122.86l-.525 3.966a1 1 0 00.86 1.122l21.81 2.885a1 1 0 001.123-.86l.524-3.966a1 1 0 00-.86-1.122zM26 18v9a1 1 0 01-1 1H7a1 1 0 01-1-1v-9M16 18v10M21.664 7.258c-1.598 1.214-5.798.658-5.798.658s.555-4.201 2.143-5.428a3.005 3.005 0 113.655 4.77v0zM10.436 5.772c1.228 1.587 5.428 2.143 5.428 2.143s.556-4.201-.657-5.8a3.005 3.005 0 00-4.77 3.657v0z" stroke="#fff" stroke-width="1.5" stroke-linecap="round" stroke-linejoin="round"/><path d="M8 15.5C7.667 15 6.6 14 5 14M10.686 16.973c-.09-.362-.104-1.263.56-1.973M1.15 12.365c.37.049 1.214.366 1.63 1.244M2.835 15.927C2.532 16.144 1.5 16.5.5 16.5M4.5 18.498s-1.596.816-2.5 1.174" stroke="#fff"/></svg>